<?xml version="1.0" encoding="UTF-8" standalone="no"?>
<svg width="128px" height="128px" viewBox="0 -8 128 128" version="1.1" xmlns="http://www.w3.org/2000/svg" xmlns:xlink="http://www.w3.org/1999/xlink">
    
    <title>iMac</title>
    <desc>Created with Sketch.</desc>
    <defs></defs>
    <g id="Page-1" stroke="none" stroke-width="1" fill="none" fill-rule="evenodd">
        <g id="Apple-Icons" transform="translate(-328.000000, -232.000000)" fill="#000000">
            <g id="128px" transform="translate(120.000000, 224.000000)">
                <path d="M334,82 L210,82 L210,14 C210,11.794 211.794,10 214,10 L330,10 C332.206,10 334,11.794 334,14 L334,82 Z M334,94 C334,96.206 332.206,98 330,98 L214,98 C211.794,98 210,96.206 210,94 L210,83 L334,83 L334,94 Z M287.343,116 L256.656,116 C260.123,109.112 261,101.744 261,100 L283,100 C283,101.744 283.877,109.114 287.343,116 L287.343,116 Z M293,117 L293,117.55 C293,118.35 292.35,119 291.551,119 L252.449,119 C251.65,119 251,118.35 251,117.55 L251,117 L293,117 Z M330,8 L214,8 C210.7,8 208,10.7 208,14 L208,94 C208,97.3 210.7,100 214,100 L260,100 C260,101.719 259.11,109.083 255.531,116 L250,116 L250,117.55 C250,118.898 251.102,120 252.449,120 L291.551,120 C292.898,120 294,118.898 294,117.55 L294,116 L288.469,116 C284.89,109.083 284,101.719 284,100 L330,100 C333.3,100 336,97.3 336,94 L336,14 C336,10.7 333.3,8 330,8 L330,8 Z M329,74 C329,75.654 327.654,77 326,77 L218,77 C216.346,77 215,75.654 215,74 L215,18 C215,16.346 216.346,15 218,15 L326,15 C327.654,15 329,16.346 329,18 L329,74 Z M326,14 L218,14 C215.791,14 214,15.791 214,18 L214,74 C214,76.209 215.791,78 218,78 L326,78 C328.209,78 330,76.209 330,74 L330,18 C330,15.791 328.209,14 326,14 L326,14 Z" id="iMac"></path>
            </g>
        </g>
    </g>
</svg>